<?xml version="1.0" encoding="UTF-8"?>
<svg xmlns="http://www.w3.org/2000/svg" viewBox="0 0 256 256" role="img" aria-labelledby="title desc">
  <title>Unijobs Logo</title>
  <desc>Figura humana estilizada con corbata dentro de un círculo, en azul.</desc>
  <defs>
    <style>
      .blue { fill: #1B6FE0; }
      .ring { fill: none; stroke: #1B6FE0; stroke-width: 20; }
    </style>
  </defs>
  <!-- Círculo exterior -->
  <circle class="ring" cx="128" cy="144" r="92" />
  <!-- Cabeza -->
  <circle class="blue" cx="128" cy="56" r="22" />
  <!-- Brazo derecho / gesto ascendente -->
  <path class="blue" d="M132 88c38 6 58 10 76 14 9 2 12 6 12 9 0 5-6 8-12 9-23 5-44 17-60 34-7 8-14 17-21 27-4 6-10 8-16 5-6-3-7-10-3-16 13-19 26-35 41-48 7-6 15-11 23-16l-42-6z" />
  <!-- Pierna / ángulo interno -->
  <path class="blue" d="M122 152c-24 32-30 40-36 44-7 5-17 3-21-4-4-6-2-14 4-19 8-6 18-17 40-49l13 28z" />
  <!-- Tronco -->
  <path class="blue" d="M112 82c-6 34-22 64-36 92-3 6-10 9-16 7-7-3-9-11-6-17 12-25 24-55 30-87 1-8 6-12 12-12 6 0 12 5 12 12z" />
  <!-- Corbata -->
  <path class="blue" d="M122 100l-8 28 8 14 16-14-8-28z" />
</svg>